<svg width="828" height="287" viewBox="0 0 828 287" fill="none" xmlns="http://www.w3.org/2000/svg">
<g filter="url(#filter0_dd_1694_6579)">
<rect width="22.0875" height="233.409" transform="matrix(0.707111 0.707103 -0.707111 0.707103 227.984 58.7422)" fill="white"/>
<rect width="22.0875" height="122.794" transform="matrix(0.707111 -0.707103 0.707111 0.707103 140.961 152.578)" fill="white"/>
<rect width="22.0875" height="84.9077" transform="matrix(0.707111 -0.707103 0.707111 0.707103 70.1055 81.7266)" fill="white"/>
<path d="M43.6016 165.492V143.405H128.51L106.183 165.492H43.6016Z" fill="white"/>
<path d="M169.648 39.6016L147.561 39.6016L147.561 124.27L169.648 102.006L169.648 39.6016Z" fill="white"/>
<path d="M270.727 179.227C266.643 179.227 262.831 178.789 259.289 177.914C255.789 176.997 252.977 175.914 250.852 174.664C248.768 173.372 247.727 172.206 247.727 171.164C247.727 170.581 247.956 169.81 248.414 168.852C248.914 167.893 249.477 167.039 250.102 166.289C250.727 165.539 251.227 165.164 251.602 165.164C251.935 165.164 252.664 165.497 253.789 166.164C256.372 167.497 258.935 168.602 261.477 169.477C264.018 170.352 267.102 170.789 270.727 170.789C273.56 170.789 276.081 170.247 278.289 169.164C280.497 168.081 282.206 166.56 283.414 164.602C284.664 162.602 285.289 160.31 285.289 157.727C285.289 154.977 284.539 152.706 283.039 150.914C281.581 149.081 279.789 147.643 277.664 146.602C275.581 145.518 272.539 144.185 268.539 142.602C264.206 140.935 260.768 139.393 258.227 137.977C255.727 136.518 253.581 134.414 251.789 131.664C250.039 128.914 249.164 125.268 249.164 120.727C249.164 116.768 250.185 113.227 252.227 110.102C254.268 106.935 257.164 104.477 260.914 102.727C264.664 100.977 268.977 100.102 273.852 100.102C276.06 100.102 278.581 100.414 281.414 101.039C284.247 101.622 286.664 102.435 288.664 103.477C290.706 104.518 291.727 105.664 291.727 106.914C291.727 107.456 291.497 108.206 291.039 109.164C290.622 110.081 290.122 110.914 289.539 111.664C288.956 112.414 288.497 112.789 288.164 112.789C287.789 112.789 287.039 112.477 285.914 111.852C284.039 110.852 282.185 110.06 280.352 109.477C278.518 108.852 276.289 108.539 273.664 108.539C269.372 108.539 265.893 109.643 263.227 111.852C260.602 114.06 259.289 117.143 259.289 121.102C259.289 123.477 259.872 125.435 261.039 126.977C262.206 128.518 263.685 129.747 265.477 130.664C267.268 131.581 269.768 132.643 272.977 133.852C273.185 133.893 273.664 134.06 274.414 134.352C278.831 136.06 282.435 137.727 285.227 139.352C288.06 140.935 290.456 143.227 292.414 146.227C294.414 149.227 295.414 153.06 295.414 157.727C295.414 162.102 294.393 165.914 292.352 169.164C290.352 172.414 287.477 174.914 283.727 176.664C280.018 178.372 275.685 179.227 270.727 179.227ZM343.629 179.227C332.504 179.227 324.025 175.852 318.192 169.102C312.358 162.352 309.442 152.477 309.442 139.477C309.442 126.518 312.337 116.727 318.129 110.102C323.962 103.435 332.462 100.102 343.629 100.102C354.837 100.102 363.358 103.435 369.192 110.102C375.025 116.727 377.942 126.518 377.942 139.477C377.942 152.477 375.025 162.352 369.192 169.102C363.358 175.852 354.837 179.227 343.629 179.227ZM343.629 170.789C351.462 170.789 357.462 168.122 361.629 162.789C365.796 157.414 367.879 149.643 367.879 139.477C367.879 129.31 365.796 121.622 361.629 116.414C357.504 111.164 351.504 108.539 343.629 108.539C335.796 108.539 329.817 111.164 325.692 116.414C321.567 121.622 319.504 129.31 319.504 139.477C319.504 149.685 321.567 157.456 325.692 162.789C329.817 168.122 335.796 170.789 343.629 170.789ZM402.282 178.602C401.115 178.602 400.261 178.331 399.719 177.789C399.177 177.247 398.907 176.414 398.907 175.289V103.039C398.907 101.372 400.407 100.539 403.407 100.539H404.282C407.24 100.539 408.719 101.372 408.719 103.039V170.164H439.282C440.073 170.164 440.636 170.435 440.969 170.977C441.302 171.477 441.469 172.31 441.469 173.477V175.289C441.469 176.414 441.302 177.247 440.969 177.789C440.636 178.331 440.073 178.602 439.282 178.602H402.282ZM485.309 179.227C478.851 179.227 473.351 178.227 468.809 176.227C464.267 174.185 460.83 171.247 458.497 167.414C456.163 163.581 454.997 158.997 454.997 153.664V103.039C454.997 101.372 456.476 100.539 459.434 100.539H460.309C463.267 100.539 464.747 101.372 464.747 103.039V154.039C464.747 157.289 465.642 160.185 467.434 162.727C469.226 165.268 471.684 167.247 474.809 168.664C477.934 170.081 481.434 170.789 485.309 170.789C489.226 170.789 492.747 170.081 495.872 168.664C498.997 167.206 501.434 165.206 503.184 162.664C504.976 160.122 505.872 157.247 505.872 154.039V103.039C505.872 101.372 507.351 100.539 510.309 100.539H511.247C514.163 100.539 515.622 101.372 515.622 103.039V153.664C515.622 158.997 514.455 163.581 512.122 167.414C509.788 171.247 506.351 174.185 501.809 176.227C497.267 178.227 491.767 179.227 485.309 179.227ZM558.962 178.789C557.42 178.789 556.295 178.602 555.587 178.227C554.878 177.81 554.524 177.185 554.524 176.352V109.289H533.149C532.357 109.289 531.795 109.018 531.462 108.477C531.128 107.935 530.962 107.102 530.962 105.977V104.164C530.962 102.997 531.128 102.164 531.462 101.664C531.795 101.122 532.357 100.852 533.149 100.852H585.274C586.066 100.852 586.628 101.122 586.962 101.664C587.295 102.164 587.462 102.997 587.462 104.164V105.977C587.462 107.102 587.295 107.935 586.962 108.477C586.628 109.018 586.066 109.289 585.274 109.289H564.337V176.352C564.337 177.977 562.837 178.789 559.837 178.789H558.962ZM608.802 178.789C605.802 178.789 604.302 177.977 604.302 176.352V103.039C604.302 101.372 605.802 100.539 608.802 100.539H609.677C612.635 100.539 614.114 101.372 614.114 103.039V176.352C614.114 177.977 612.635 178.789 609.677 178.789H608.802ZM669.329 179.227C658.204 179.227 649.725 175.852 643.892 169.102C638.058 162.352 635.142 152.477 635.142 139.477C635.142 126.518 638.037 116.727 643.829 110.102C649.662 103.435 658.162 100.102 669.329 100.102C680.537 100.102 689.058 103.435 694.892 110.102C700.725 116.727 703.642 126.518 703.642 139.477C703.642 152.477 700.725 162.352 694.892 169.102C689.058 175.852 680.537 179.227 669.329 179.227ZM669.329 170.789C677.162 170.789 683.162 168.122 687.329 162.789C691.496 157.414 693.579 149.643 693.579 139.477C693.579 129.31 691.496 121.622 687.329 116.414C683.204 111.164 677.204 108.539 669.329 108.539C661.496 108.539 655.517 111.164 651.392 116.414C647.267 121.622 645.204 129.31 645.204 139.477C645.204 149.685 647.267 157.456 651.392 162.789C655.517 168.122 661.496 170.789 669.329 170.789ZM728.357 178.789C726.773 178.789 725.627 178.602 724.919 178.227C724.211 177.81 723.857 177.185 723.857 176.352V103.039C723.857 101.372 725.357 100.539 728.357 100.539H730.669C731.836 100.539 732.752 100.706 733.419 101.039C734.127 101.372 734.752 101.914 735.294 102.664L770.794 156.227L774.107 162.477V103.039C774.107 101.372 775.565 100.539 778.482 100.539H779.357C782.273 100.539 783.732 101.372 783.732 103.039V176.352C783.732 177.185 783.377 177.81 782.669 178.227C781.961 178.602 780.857 178.789 779.357 178.789H777.107C776.065 178.789 775.232 178.664 774.607 178.414C773.982 178.164 773.502 177.768 773.169 177.227L736.544 121.977L733.544 116.227V176.352C733.544 177.977 732.065 178.789 729.107 178.789H728.357Z" fill="white"/>
</g>
<defs>
<filter id="filter0_dd_1694_6579" x="0.00156403" y="0.00156403" width="827.329" height="287.005" filterUnits="userSpaceOnUse" color-interpolation-filters="sRGB">
<feFlood flood-opacity="0" result="BackgroundImageFix"/>
<feColorMatrix in="SourceAlpha" type="matrix" values="0 0 0 0 0 0 0 0 0 0 0 0 0 0 0 0 0 0 127 0" result="hardAlpha"/>
<feOffset dy="4"/>
<feGaussianBlur stdDeviation="21.8"/>
<feComposite in2="hardAlpha" operator="out"/>
<feColorMatrix type="matrix" values="0 0 0 0 1 0 0 0 0 1 0 0 0 0 1 0 0 0 0.25 0"/>
<feBlend mode="normal" in2="BackgroundImageFix" result="effect1_dropShadow_1694_6579"/>
<feColorMatrix in="SourceAlpha" type="matrix" values="0 0 0 0 0 0 0 0 0 0 0 0 0 0 0 0 0 0 127 0" result="hardAlpha"/>
<feOffset dy="-5"/>
<feGaussianBlur stdDeviation="11.6"/>
<feComposite in2="hardAlpha" operator="out"/>
<feColorMatrix type="matrix" values="0 0 0 0 1 0 0 0 0 1 0 0 0 0 1 0 0 0 0.25 0"/>
<feBlend mode="normal" in2="effect1_dropShadow_1694_6579" result="effect2_dropShadow_1694_6579"/>
<feBlend mode="normal" in="SourceGraphic" in2="effect2_dropShadow_1694_6579" result="shape"/>
</filter>
</defs>
</svg>
